<svg xmlns="http://www.w3.org/2000/svg" xmlns:xlink="http://www.w3.org/1999/xlink" viewBox="0 0 100 101"><defs><path id="a" d="M0 0h99.659v100.018H0V0z" transform="translate(0 .343)"/><clipPath id="b"><use xlink:href="#a"/></clipPath></defs><path fill="none" fill-rule="evenodd" stroke="none" d="M0 0h99.659v100.018H0V0z" transform="translate(0 .343)"/><g clip-path="url(#b)"><path fill="#DECCB5" fill-rule="evenodd" stroke="none" d="M99.659 50.01c0 27.618-22.31 50.008-49.83 50.008S0 77.628 0 50.009C0 22.39 22.31 0 49.83 0s49.829 22.39 49.829 50.01" transform="translate(0 .343)"/></g><path fill="#FFF" fill-rule="evenodd" stroke="none" d="M15.962 6.838h-4.477V2.345A2.34 2.34 0 0 0 9.149 0a2.34 2.34 0 0 0-2.336 2.345v4.493H2.336A2.34 2.34 0 0 0 0 9.182a2.34 2.34 0 0 0 2.336 2.344h4.477v4.493a2.34 2.34 0 0 0 2.336 2.345 2.34 2.34 0 0 0 2.336-2.345v-4.493h4.477a2.34 2.34 0 0 0 2.336-2.344 2.34 2.34 0 0 0-2.336-2.344" transform="translate(41.185 49.434)"/><path fill="#FFF" fill-rule="evenodd" stroke="none" d="M10.413 11.402a2.47 2.47 0 0 1-2.462-2.471V5.017a2.469 2.469 0 0 1 2.462-2.471h17.966a2.47 2.47 0 0 1 2.462 2.47v3.915a2.47 2.47 0 0 1-2.462 2.471H10.413zm3.418 5.588h11.13v-2.68h-11.13v2.68zm23.648 47.756h-.245a5.941 5.941 0 0 1-2.559-.576 4.977 4.977 0 0 1-3.425 1.365H7.542c-2.76 0-5.006-2.254-5.006-5.024V24.559c0-2.77 2.246-5.024 5.006-5.024H31.25c2.76 0 5.006 2.254 5.006 5.024v14.285a6.05 6.05 0 0 1 .978-.08h.245c.451 0 .89.051 1.313.146V24.56c0-4.174-3.384-7.57-7.542-7.57h-3.752v-3.042h.881c2.756 0 4.998-2.25 4.998-5.016V5.017C33.377 2.25 31.135 0 28.38 0H10.413C7.657 0 5.415 2.25 5.415 5.017V8.93c0 2.766 2.242 5.016 4.998 5.016h.881v3.043H7.542C3.383 16.99 0 20.385 0 24.559V60.51c0 4.174 3.383 7.57 7.542 7.57H31.25a7.532 7.532 0 0 0 6.248-3.336h-.019z" transform="translate(30.938 16.172)"/><path fill="#FFF" fill-rule="evenodd" stroke="none" d="M9.074 9.545V4.554C9.074 2.038 7.043 0 4.537 0S0 2.038 0 4.554v4.991h9.074z" transform="translate(63.756 57.307)"/><path fill="#FFF" fill-rule="evenodd" stroke="none" d="M0 0v5.748C0 8.263 2.031 10.3 4.537 10.3s4.537-2.038 4.537-4.553V0H0z" transform="translate(63.757 68.3)"/></svg>