<svg xmlns="http://www.w3.org/2000/svg" xmlns:xlink="http://www.w3.org/1999/xlink" viewBox="0 0 100 100"><defs><path id="a" d="M0 0h99.659v99.659H0V0z" transform="translate(0 .341)"/><clipPath id="b"><use xlink:href="#a"/></clipPath></defs><path fill="none" fill-rule="evenodd" stroke="none" d="M0 0h99.659v99.659H0V0z" transform="translate(0 .341)"/><g clip-path="url(#b)"><path fill="#DECCB5" fill-rule="evenodd" stroke="none" d="M99.659 49.83c0 27.52-22.31 49.829-49.83 49.829S0 77.349 0 49.829 22.31 0 49.83 0s49.829 22.31 49.829 49.83" transform="translate(0 .341)"/></g><path fill="#FFF" fill-rule="evenodd" stroke="none" d="M30.653 33.166a23.018 23.018 0 0 0-8.962-7.13c3.305-2.69 5.42-6.788 5.42-11.373C27.112 6.579 20.535 0 12.449 0 7.201 0 2.592 2.772 0 6.927c.96.365 1.883.808 2.761 1.318 2.085-3.136 5.648-5.207 9.687-5.207 6.41 0 11.626 5.215 11.626 11.626 0 6.41-5.215 11.625-11.626 11.625-.116 0-.23-.005-.346-.009a18.847 18.847 0 0 1-.526 3.02 14.568 14.568 0 0 0 6.86-1.257 19.903 19.903 0 0 1 9.79 6.95 19.564 19.564 0 0 1 3.959 11.858 1.519 1.519 0 0 0 3.037 0 22.58 22.58 0 0 0-4.569-13.685" transform="translate(46.951 19.626)"/><path fill="#FFF" fill-rule="evenodd" stroke="none" d="M11.148 14.663c0-6.41 5.215-11.625 11.626-11.625 6.41 0 11.626 5.215 11.626 11.625S29.185 26.29 22.774 26.29c-6.41 0-11.626-5.215-11.626-11.626m29.83 18.502a23.014 23.014 0 0 0-8.961-7.128c3.305-2.691 5.42-6.79 5.42-11.374C37.438 6.578 30.86 0 22.774 0 14.689 0 8.11 6.578 8.11 14.663c0 4.583 2.115 8.68 5.419 11.371A22.707 22.707 0 0 0 0 46.851a1.519 1.519 0 0 0 3.038 0 19.685 19.685 0 0 1 13.645-18.778c.031-.01.06-.023.091-.035a14.576 14.576 0 0 0 6 1.289 14.57 14.57 0 0 0 5.988-1.284 19.904 19.904 0 0 1 9.79 6.95A19.565 19.565 0 0 1 42.51 46.85a1.519 1.519 0 0 0 3.038 0 22.58 22.58 0 0 0-4.57-13.686" transform="translate(17.485 28.751)"/></svg>